<svg width="33" height="32" viewBox="0 0 33 32" fill="none" xmlns="http://www.w3.org/2000/svg">
    <path d="M4.5 11.9997C4.5 10.5269 5.69391 9.33301 7.16667 9.33301H8.40618C9.29779 9.33301 10.1304 8.8874 10.625 8.14554L11.7084 6.52047C12.2029 5.77861 13.0355 5.33301 13.9272 5.33301H19.0728C19.9645 5.33301 20.7971 5.77861 21.2916 6.52047L22.375 8.14554C22.8696 8.88741 23.7022 9.33301 24.5938 9.33301H25.8333C27.3061 9.33301 28.5 10.5269 28.5 11.9997V23.9997C28.5 25.4724 27.3061 26.6663 25.8333 26.6663H7.16667C5.69391 26.6663 4.5 25.4724 4.5 23.9997V11.9997Z" stroke="white" stroke-width="2.5" stroke-linecap="round" stroke-linejoin="round"/>
    <path d="M20.5 17.333C20.5 19.5421 18.7091 21.333 16.5 21.333C14.2909 21.333 12.5 19.5421 12.5 17.333C12.5 15.1239 14.2909 13.333 16.5 13.333C18.7091 13.333 20.5 15.1239 20.5 17.333Z" stroke="white" stroke-width="2.5" stroke-linecap="round" stroke-linejoin="round"/>
</svg>
