<svg width="24" height="24" viewBox="0 0 24 24" fill="none" xmlns="http://www.w3.org/2000/svg">
    <path fill-rule="evenodd" clip-rule="evenodd" d="M21.6 12.0004C21.6 17.3023 17.302 21.6004 12 21.6004C6.69809 21.6004 2.40002 17.3023 2.40002 12.0004C2.40002 6.69846 6.69809 2.40039 12 2.40039C17.302 2.40039 21.6 6.69846 21.6 12.0004ZM13.2 7.20039C13.2 7.86313 12.6628 8.40039 12 8.40039C11.3373 8.40039 10.8 7.86313 10.8 7.20039C10.8 6.53765 11.3373 6.00039 12 6.00039C12.6628 6.00039 13.2 6.53765 13.2 7.20039ZM10.8 10.8004C10.1373 10.8004 9.60002 11.3376 9.60002 12.0004C9.60002 12.6631 10.1373 13.2004 10.8 13.2004V16.8004C10.8 17.4631 11.3373 18.0004 12 18.0004H13.2C13.8628 18.0004 14.4 17.4631 14.4 16.8004C14.4 16.1377 13.8628 15.6004 13.2 15.6004V12.0004C13.2 11.3376 12.6628 10.8004 12 10.8004H10.8Z" fill="#2E31FF"/>
</svg>
