<svg width="104" height="30" viewBox="0 0 104 30" fill="none" xmlns="http://www.w3.org/2000/svg">
    <path fill-rule="evenodd" clip-rule="evenodd" d="M14.1619 1.79096C14.0104 1.21563 13.6972 0.666485 13.1271 0.332091C12.562 0.000603371 11.8661 -0.0481887 11.0951 0.118597C10.2605 0.299173 9.67567 0.729142 9.36315 1.35111C9.06845 1.93761 9.06971 2.58979 9.16039 3.13635C9.16158 3.1435 9.16288 3.15062 9.16428 3.15772L9.18947 3.28512C8.67636 3.14723 8.15684 3.18509 7.72055 3.2855C7.09052 3.43049 6.53856 3.75825 6.19287 4.32159C5.85457 4.8729 5.77491 5.55083 5.87709 6.28325C5.88001 6.30424 5.88389 6.32509 5.88869 6.34573L8.29421 16.679L4.51438 14.4065C4.49974 14.3977 4.48477 14.3894 4.46952 14.3817C3.75326 14.0192 2.95656 13.8165 2.2289 13.9726C1.43705 14.1426 0.856938 14.7104 0.620461 15.5886C0.404537 16.3905 0.482837 17.1424 0.823653 17.7697C1.16063 18.3899 1.72115 18.8277 2.36608 19.0739C4.35239 19.8322 5.79993 21.2182 7.27106 23.7274C8.20122 25.3139 8.93919 26.5476 10.0886 27.327C11.2638 28.1238 12.7683 28.3893 15.0741 28.3893C18.1672 28.3893 20.1882 27.7425 21.5257 26.4473C22.8433 25.1715 23.3683 23.3816 23.7608 21.4455C24.3725 18.4279 25.2401 12.8228 25.6127 10.4161L25.6127 10.4159L25.6136 10.4103C25.7506 9.52495 25.7584 8.73577 25.4921 8.09629C25.2003 7.39552 24.6348 6.99497 23.9238 6.79674C23.4226 6.65701 22.9556 6.6607 22.5348 6.80258L22.7417 5.79978L22.7435 5.79071C22.9158 4.89628 23.0222 4.01578 22.8225 3.28629C22.7168 2.89976 22.5231 2.54473 22.2095 2.25622C21.9003 1.97171 21.5122 1.78666 21.0696 1.67491C20.5473 1.54307 20.0657 1.54692 19.6344 1.69754C19.2023 1.84841 18.8843 2.12434 18.6524 2.42843C18.246 2.9613 18.0541 3.65991 17.934 4.09722L17.9097 4.18542C17.9069 4.19533 17.9044 4.2053 17.902 4.21532L16.2442 11.3828L14.1691 1.82096C14.1669 1.81091 14.1645 1.80091 14.1619 1.79096ZM9.70528 5.8939L9.70633 5.89918L9.70643 5.89969C9.7085 5.91017 9.71081 5.92059 9.71335 5.93096L11.9823 15.1789C12.0751 15.5569 12.4564 15.7881 12.8341 15.6953C13.2117 15.6024 13.4427 15.2207 13.3499 14.8426L11.0847 5.61025L10.5479 2.89523C10.4841 2.50211 10.5155 2.19492 10.6212 1.9846C10.7099 1.80795 10.898 1.60354 11.3926 1.49653C11.951 1.37573 12.2539 1.45381 12.4152 1.54841C12.5694 1.63885 12.7084 1.81144 12.7965 2.1365L15.5342 14.7517C15.6041 15.074 15.888 15.3047 16.2175 15.3069C16.5469 15.3091 16.8339 15.0824 16.9082 14.7611L19.2705 4.54836C19.4108 4.04333 19.5383 3.58993 19.7717 3.28391C19.8751 3.14831 19.9808 3.0696 20.0982 3.02862C20.2162 2.9874 20.4096 2.96219 20.7253 3.04186C21.0017 3.11164 21.1607 3.20592 21.2566 3.29421C21.3483 3.37852 21.4181 3.48981 21.4644 3.6588C21.5686 4.03971 21.5335 4.62574 21.3616 5.51913L20.4763 9.81026L20.4754 9.81435L19.0892 16.3374C19.0083 16.7182 19.251 17.0925 19.6314 17.1735C20.0118 17.2545 20.3857 17.0115 20.4666 16.6307L21.8437 10.1506C21.8854 10.0339 21.9251 9.91664 21.9647 9.8L21.9648 9.79956C22.1165 9.35199 22.265 8.91398 22.5062 8.55709C22.6494 8.34532 22.7903 8.22234 22.9278 8.16073C23.0523 8.10492 23.2395 8.06937 23.546 8.1548C23.9474 8.26672 24.105 8.42897 24.1923 8.63871C24.3052 8.90973 24.3482 9.37875 24.222 10.1944C23.8477 12.6123 22.9848 18.185 22.3807 21.1651C21.9916 23.0846 21.5274 24.4843 20.5466 25.4341C19.5857 26.3646 17.9991 26.9795 15.0741 26.9795C12.8315 26.9795 11.6886 26.7092 10.8783 26.1598C10.0422 25.5928 9.45643 24.6697 8.48554 23.0138C6.91501 20.3351 5.25156 18.6666 2.86783 17.7567C2.48479 17.6105 2.21237 17.3752 2.06071 17.0961C1.91289 16.824 1.84685 16.4506 1.98015 15.9555C2.0929 15.5368 2.29785 15.3996 2.52411 15.3511C2.81079 15.2895 3.25723 15.3521 3.81221 15.6288L8.99488 18.7447C9.23731 18.8904 9.54332 18.8769 9.77191 18.7102C10.0005 18.5435 10.1073 18.2561 10.0431 17.9804L7.26772 6.05822C7.20108 5.54696 7.28231 5.23951 7.39278 5.05949C7.49801 4.888 7.68599 4.73996 8.03606 4.6594C8.43088 4.56854 8.77894 4.59067 9.03677 4.73096C9.26864 4.85713 9.55765 5.14985 9.70528 5.8939ZM12.9637 18.2629C12.6112 18.0984 12.1923 18.2511 12.028 18.6039C11.8636 18.9567 12.0161 19.3761 12.3686 19.5406C13.3148 19.9823 15.1213 21.4728 14.963 23.8453C14.9371 24.2337 15.2306 24.5696 15.6186 24.5956C16.0066 24.6215 16.3422 24.3277 16.3681 23.9393C16.5815 20.7405 14.1719 18.8269 12.9637 18.2629ZM85.4777 14.3905C84.8534 14.3905 84.2713 14.2425 83.7315 13.9465C83.1964 13.6457 82.7645 13.2016 82.4359 12.6143C82.1074 12.0222 81.9431 11.2891 81.9431 10.4151C81.9431 9.58801 82.1121 8.88783 82.45 8.31454C82.788 7.74124 83.2269 7.30657 83.7667 7.01053C84.3065 6.71448 84.8769 6.56646 85.4777 6.56646C86.0785 6.56646 86.6207 6.72388 87.1042 7.03872C87.3183 7.17817 87.5131 7.3402 87.6886 7.52481V3.19013H90.5332V14.2073H87.6886V13.3741C87.5131 13.5682 87.3183 13.7402 87.1042 13.8901C86.6207 14.2237 86.0785 14.3905 85.4777 14.3905ZM87.4774 9.47758C87.6182 9.67964 87.6886 9.93809 87.6886 10.2529V10.3023V10.3446V10.5772C87.6886 10.8873 87.6182 11.1481 87.4774 11.3596C87.3413 11.571 87.1652 11.7308 86.9493 11.8389C86.7381 11.9423 86.5198 11.994 86.2945 11.994C85.9377 11.994 85.6115 11.8694 85.3158 11.6204C85.02 11.3713 84.8722 10.9696 84.8722 10.4151C84.8722 9.86056 85.02 9.46583 85.3158 9.23087C85.6115 8.99122 85.9377 8.87139 86.2945 8.87139C86.5151 8.87139 86.731 8.92308 86.9423 9.02646C87.1582 9.12514 87.3366 9.27551 87.4774 9.47758ZM39.1416 5.92503H41.5778V3.81041H33.8748V5.92503H36.304V14.2073H39.1416V5.92503ZM41.8714 6.72153V14.2073H44.716V11.0494C44.716 10.8004 44.7512 10.556 44.8217 10.3164C44.8921 10.072 45.0047 9.85351 45.1596 9.66084C45.3145 9.46348 45.5187 9.30841 45.7722 9.19563C46.0257 9.07815 46.3355 9.01941 46.7016 9.01941C46.9082 9.01941 47.0842 9.04526 47.2297 9.09695C47.3752 9.14394 47.4691 9.17918 47.5114 9.20268L47.8986 6.72153C47.8611 6.69804 47.7625 6.66749 47.6029 6.6299C47.448 6.58761 47.218 6.56646 46.9129 6.56646C46.5467 6.56646 46.2135 6.6252 45.913 6.74268C45.6173 6.85546 45.3544 7.02228 45.1244 7.24314C44.9709 7.39047 44.8347 7.56072 44.716 7.7539V6.72153H41.8714ZM51.4691 14.3553C50.9434 14.3553 50.5115 14.273 50.1736 14.1086C49.8403 13.9441 49.5798 13.7186 49.392 13.4319C49.2042 13.1453 49.0728 12.821 48.9977 12.4592C48.9226 12.0926 48.885 11.7097 48.885 11.3102V10.7886V10.2106V6.72153H51.7226V9.73133V10.1684V10.5419C51.7226 10.8098 51.7437 11.0565 51.786 11.282C51.8329 11.5029 51.9268 11.6815 52.0676 11.8177C52.2084 11.9493 52.4197 12.0151 52.7013 12.0151C52.983 12.0151 53.2153 11.9399 53.3984 11.7896C53.5815 11.6345 53.7176 11.4348 53.8068 11.1904C53.9007 10.9414 53.9476 10.6782 53.9476 10.401V6.72153H56.7852V14.2073H53.9476V13.1277C53.8691 13.2486 53.7822 13.3617 53.6871 13.4671C53.4289 13.7538 53.1121 13.9747 52.7365 14.1297C52.3657 14.2801 51.9432 14.3553 51.4691 14.3553ZM60.091 14.2284C60.5228 14.3365 60.9594 14.3905 61.4006 14.3905C61.8325 14.3905 62.2643 14.3459 62.6962 14.2566C63.128 14.1673 63.5247 14.024 63.8861 13.8266C64.2523 13.6293 64.5433 13.3685 64.7592 13.0442C64.9799 12.72 65.0902 12.3206 65.0902 11.8459C65.0902 11.4042 64.9799 11.0424 64.7592 10.7604C64.5433 10.4738 64.2687 10.2482 63.9354 10.0838C63.6021 9.9146 63.2595 9.78772 62.9074 9.70313C62.5554 9.61855 62.2456 9.55746 61.978 9.51987C61.7198 9.48228 61.4851 9.44233 61.2739 9.40004C61.0673 9.35305 60.903 9.29666 60.781 9.23087C60.6636 9.16508 60.605 9.0852 60.605 8.99122C60.605 8.88314 60.6519 8.8009 60.7458 8.74451C60.8397 8.68812 60.95 8.65053 61.0767 8.63173C61.2082 8.60824 61.3208 8.59649 61.4147 8.59649C61.5367 8.59649 61.6588 8.61528 61.7808 8.65288C61.9029 8.69047 62.0038 8.74921 62.0836 8.8291C62.1681 8.90428 62.2103 9.00766 62.2103 9.13924V9.17448V9.20973H64.9916V9.17448V9.13924C64.9916 8.61293 64.8226 8.15712 64.4846 7.77179C64.1467 7.38646 63.7078 7.09041 63.1679 6.88365C62.6281 6.67219 62.0507 6.56646 61.4358 6.56646C60.788 6.56646 60.1895 6.66044 59.6403 6.84841C59.0958 7.03167 58.6569 7.30657 58.3237 7.67311C57.9951 8.03964 57.8308 8.49546 57.8308 9.04056C57.8308 9.43998 57.9294 9.77597 58.1265 10.0485C58.3237 10.3211 58.5795 10.5466 58.894 10.7252C59.2085 10.8991 59.5441 11.0377 59.9009 11.1411C60.2576 11.2398 60.5956 11.3149 60.9148 11.3666C61.4452 11.4512 61.816 11.5264 62.0273 11.5922C62.2432 11.6533 62.3512 11.7614 62.3512 11.9164C62.3512 12.0198 62.2995 12.1044 62.1963 12.1702C62.0977 12.2313 61.9803 12.2759 61.8442 12.3041C61.7081 12.3276 61.5884 12.3394 61.4851 12.3394C61.1988 12.3394 60.9711 12.2994 60.8021 12.2195C60.6331 12.1396 60.5486 12.001 60.5486 11.8037V11.7684V11.7332H57.7392V11.7684V11.8037C57.7392 12.2407 57.8449 12.6213 58.0561 12.9455C58.272 13.2698 58.556 13.54 58.9081 13.7561C59.2648 13.9676 59.6591 14.125 60.091 14.2284ZM70.2708 14.3905C69.9469 14.3905 69.6042 14.3647 69.2428 14.313C68.886 14.266 68.5504 14.165 68.2359 14.0099C67.9214 13.8548 67.6656 13.6222 67.4684 13.3121C67.2713 12.9972 67.1727 12.5767 67.1727 12.0504V11.7261V11.4089V8.83614H65.5039V6.72153H65.5391C65.9053 6.72153 66.1963 6.70508 66.4122 6.67219C66.6329 6.6393 66.7972 6.55941 66.9051 6.43253C67.0131 6.30566 67.0835 6.10594 67.1163 5.83339C67.1539 5.56084 67.1727 5.18491 67.1727 4.7056V4.26858H70.0173V6.72153H72.0803V8.83614H70.0173V10.9014V11.1129V11.3173C70.0173 11.5898 70.0501 11.8201 70.1159 12.0081C70.1816 12.196 70.3576 12.29 70.644 12.29C70.8129 12.29 70.9725 12.2736 71.1227 12.2407C71.273 12.2078 71.3856 12.1749 71.4607 12.142V14.1932C71.3528 14.2402 71.1955 14.2848 70.989 14.3271C70.7871 14.3694 70.5477 14.3905 70.2708 14.3905ZM75.6307 11.2398C75.6507 11.3186 75.674 11.3938 75.7005 11.4653C75.8084 11.7567 75.9798 11.9799 76.2145 12.1349C76.4492 12.2853 76.7566 12.3605 77.1368 12.3605C77.3622 12.3605 77.5546 12.3441 77.7142 12.3112C77.8738 12.2783 78.0006 12.236 78.0944 12.1843C78.193 12.1326 78.2658 12.0762 78.3127 12.0151C78.3643 11.954 78.3949 11.8953 78.4043 11.8389H81.2066C81.1738 12.1678 81.0541 12.485 80.8475 12.7905C80.6457 13.0959 80.3664 13.3708 80.0096 13.6152C79.6529 13.8548 79.2234 14.0451 78.7211 14.1861C78.2188 14.3224 77.6508 14.3905 77.0172 14.3905C76.1394 14.3905 75.3789 14.2261 74.7358 13.8971C74.0927 13.5635 73.5975 13.103 73.2502 12.5156C72.9028 11.9235 72.7291 11.2445 72.7291 10.4785C72.7291 9.69374 72.9075 9.00766 73.2642 8.42027C73.621 7.83288 74.1209 7.37706 74.764 7.05282C75.4118 6.72858 76.1628 6.56646 77.0172 6.56646C77.8996 6.56646 78.6601 6.73328 79.2985 7.06692C79.9416 7.39586 80.4368 7.86577 80.7841 8.47666C81.1315 9.08285 81.3052 9.80417 81.3052 10.6406C81.3052 10.7816 81.3028 10.9014 81.2981 11.0001C81.2934 11.0988 81.2864 11.1787 81.277 11.2398H75.6307ZM75.656 9.54806H78.4438C78.4256 9.42844 78.3819 9.30626 78.3127 9.18153C78.2235 9.00766 78.0757 8.86199 77.8691 8.74451C77.6673 8.62703 77.395 8.56829 77.0524 8.56829C76.7191 8.56829 76.4398 8.63878 76.2145 8.77975C75.9891 8.92073 75.8202 9.12984 75.7075 9.40709C75.6888 9.45239 75.6716 9.49938 75.656 9.54806ZM36.1491 17.062L33.734 27.4588H36.642L37.0877 25.2737H39.715L40.1555 27.4588H43.0635L40.6624 17.062H36.1491ZM39.2846 23.138L38.4093 18.7955L37.5234 23.138H39.2846ZM47.8904 27.6421C46.9938 27.6421 46.224 27.4706 45.5809 27.1275C44.9378 26.7845 44.4449 26.3146 44.1023 25.7178C43.7596 25.121 43.5883 24.442 43.5883 23.6807C43.5883 22.9148 43.7596 22.2428 44.1023 21.6648C44.4449 21.0868 44.9378 20.6357 45.5809 20.3114C46.224 19.9825 46.9938 19.818 47.8904 19.818C48.5522 19.818 49.1343 19.912 49.6366 20.1C50.1388 20.2879 50.5566 20.537 50.8899 20.8471C51.2279 21.1526 51.4813 21.4886 51.6503 21.8551C51.824 22.2216 51.9109 22.5858 51.9109 22.9477V22.9829V23.0111H49.1014C49.1014 22.9829 49.0991 22.9571 49.0944 22.9336C49.0944 22.9101 49.0897 22.8866 49.0803 22.8631C49.0428 22.7409 48.9841 22.614 48.9043 22.4824C48.8245 22.3509 48.7024 22.2404 48.5382 22.1512C48.3786 22.0572 48.1532 22.0102 47.8622 22.0102C47.5759 22.0102 47.3271 22.076 47.1158 22.2075C46.9093 22.3391 46.7497 22.5294 46.6371 22.7785C46.5244 23.0275 46.4681 23.3283 46.4681 23.6807C46.4681 24.0238 46.5244 24.3292 46.6371 24.5971C46.7497 24.8649 46.9093 25.074 47.1158 25.2244C47.3271 25.3748 47.5759 25.45 47.8622 25.45C48.1439 25.45 48.3692 25.4077 48.5382 25.3231C48.7118 25.2385 48.8409 25.1234 48.9254 24.9777C49.0146 24.8273 49.0709 24.6581 49.0944 24.4702H51.9109C51.9109 24.8273 51.824 25.1938 51.6503 25.5698C51.4813 25.941 51.2279 26.284 50.8899 26.5989C50.5566 26.909 50.1388 27.1604 49.6366 27.3531C49.1343 27.5458 48.5522 27.6421 47.8904 27.6421ZM54.5336 27.1275C55.1766 27.4706 55.9465 27.6421 56.843 27.6421C57.5049 27.6421 58.087 27.5458 58.5892 27.3531C59.0915 27.1604 59.5093 26.909 59.8426 26.5989C60.1805 26.284 60.434 25.941 60.603 25.5698C60.7767 25.1938 60.8635 24.8273 60.8635 24.4702H58.0471C58.0236 24.6581 57.9673 24.8273 57.8781 24.9777C57.7936 25.1234 57.6645 25.2385 57.4908 25.3231C57.3218 25.4077 57.0965 25.45 56.8149 25.45C56.5285 25.45 56.2798 25.3748 56.0685 25.2244C55.862 25.074 55.7024 24.8649 55.5897 24.5971C55.4771 24.3292 55.4207 24.0238 55.4207 23.6807C55.4207 23.3283 55.4771 23.0275 55.5897 22.7785C55.7024 22.5294 55.862 22.3391 56.0685 22.2075C56.2798 22.076 56.5285 22.0102 56.8149 22.0102C57.1059 22.0102 57.3312 22.0572 57.4908 22.1512C57.6551 22.2404 57.7772 22.3509 57.857 22.4824C57.9368 22.614 57.9954 22.7409 58.033 22.8631C58.0424 22.8866 58.0471 22.9101 58.0471 22.9336C58.0518 22.9571 58.0541 22.9829 58.0541 23.0111H60.8635V22.9829V22.9477C60.8635 22.5858 60.7767 22.2216 60.603 21.8551C60.434 21.4886 60.1805 21.1526 59.8426 20.8471C59.5093 20.537 59.0915 20.2879 58.5892 20.1C58.087 19.912 57.5049 19.818 56.843 19.818C55.9465 19.818 55.1766 19.9825 54.5336 20.3114C53.8905 20.6357 53.3976 21.0868 53.0549 21.6648C52.7122 22.2428 52.5409 22.9148 52.5409 23.6807C52.5409 24.442 52.7122 25.121 53.0549 25.7178C53.3976 26.3146 53.8905 26.7845 54.5336 27.1275ZM65.7605 27.6351C64.9156 27.6351 64.1716 27.4706 63.5285 27.1416C62.8901 26.8127 62.3902 26.3545 62.0287 25.7671C61.672 25.1798 61.4936 24.4984 61.4936 23.723C61.4936 22.9477 61.672 22.2663 62.0287 21.6789C62.3902 21.0915 62.8901 20.6357 63.5285 20.3114C64.1716 19.9825 64.9156 19.818 65.7605 19.818C66.6054 19.818 67.3471 19.9825 67.9855 20.3114C68.6286 20.6357 69.1285 21.0915 69.4852 21.6789C69.8467 22.2663 70.0274 22.9477 70.0274 23.723C70.0274 24.4984 69.8467 25.1798 69.4852 25.7671C69.1285 26.3545 68.6286 26.8127 67.9855 27.1416C67.3471 27.4706 66.6054 27.6351 65.7605 27.6351ZM65.7605 25.4852C66.0515 25.4852 66.3003 25.4124 66.5069 25.2667C66.7134 25.121 66.8706 24.9166 66.9786 24.6534C67.0913 24.3903 67.1476 24.0802 67.1476 23.723C67.1476 23.3659 67.0913 23.0581 66.9786 22.7996C66.8706 22.5365 66.7134 22.3344 66.5069 22.1934C66.3003 22.0478 66.0515 21.9749 65.7605 21.9749C65.4742 21.9749 65.2254 22.0478 65.0141 22.1934C64.8076 22.3344 64.648 22.5365 64.5353 22.7996C64.4274 23.0581 64.3734 23.3659 64.3734 23.723C64.3734 24.0802 64.4274 24.3903 64.5353 24.6534C64.648 24.9166 64.8076 25.121 65.0141 25.2667C65.2254 25.4124 65.4742 25.4852 65.7605 25.4852ZM72.3421 27.3602C72.68 27.5246 73.1119 27.6069 73.6376 27.6069C74.1117 27.6069 74.5342 27.5317 74.905 27.3813C75.2806 27.2262 75.5974 27.0054 75.8556 26.7187C75.9507 26.6133 76.0376 26.5001 76.1161 26.3793V27.4588H78.9537V19.9731H76.1161V23.6525C76.1161 23.9298 76.0692 24.1929 75.9753 24.442C75.8861 24.6863 75.75 24.8861 75.5669 25.0411C75.3838 25.1915 75.1515 25.2667 74.8698 25.2667C74.5882 25.2667 74.377 25.2009 74.2361 25.0693C74.0953 24.933 74.0014 24.7545 73.9545 24.5336C73.9122 24.3081 73.8911 24.0614 73.8911 23.7935V23.4199V22.9829V19.9731H71.0535V23.4622V24.0402V24.5618C71.0535 24.9612 71.0911 25.3442 71.1662 25.7108C71.2413 26.0726 71.3727 26.3968 71.5605 26.6835C71.7483 26.9701 72.0088 27.1957 72.3421 27.3602ZM85.4984 27.4588V24.5477V24.0966V23.7089C85.4984 23.4505 85.4749 23.2038 85.428 22.9688C85.3857 22.7338 85.2848 22.5412 85.1252 22.3908C84.9703 22.2404 84.7215 22.1653 84.3789 22.1653C84.0831 22.1653 83.8437 22.2263 83.6607 22.3485C83.4776 22.4707 83.3438 22.6469 83.2593 22.8772C83.1748 23.1074 83.1326 23.3847 83.1326 23.7089V27.4588H80.295V19.9731H83.1326V21.1559C83.3934 20.7635 83.7267 20.4539 84.1324 20.2269C84.6112 19.9543 85.151 19.818 85.7519 19.818C86.3903 19.818 86.8972 19.9496 87.2728 20.2128C87.6483 20.4712 87.9182 20.8307 88.0825 21.2912C88.2515 21.7517 88.336 22.278 88.336 22.8701V23.7583V24.8156V27.4588H85.4984ZM92.6627 27.5646C93.0242 27.6163 93.3668 27.6421 93.6907 27.6421C93.9677 27.6421 94.2071 27.621 94.4089 27.5787C94.6155 27.5364 94.7727 27.4917 94.8807 27.4447V25.3936C94.8056 25.4265 94.6929 25.4594 94.5427 25.4922C94.3925 25.5251 94.2329 25.5416 94.0639 25.5416C93.7776 25.5416 93.6015 25.4476 93.5358 25.2596C93.4701 25.0717 93.4372 24.8414 93.4372 24.5689V24.3645V24.153V22.0877H95.5003V19.9731H93.4372V17.5202H90.5926V17.9572C90.5926 18.4365 90.5739 18.8124 90.5363 19.085C90.5034 19.3575 90.433 19.5572 90.3251 19.6841C90.2171 19.811 90.0528 19.8909 89.8322 19.9238C89.6163 19.9567 89.3252 19.9731 88.9591 19.9731H88.9239V22.0877H90.5926V24.6605V24.9777V25.3019C90.5926 25.8282 90.6912 26.2488 90.8884 26.5636C91.0855 26.8738 91.3413 27.1064 91.6558 27.2615C91.9703 27.4165 92.306 27.5176 92.6627 27.5646Z" fill="white"/>
</svg>
