<svg width="171" height="48" viewBox="0 0 171 48" fill="none" xmlns="http://www.w3.org/2000/svg">
<path fill-rule="evenodd" clip-rule="evenodd" d="M22.6372 2.92233C22.3862 1.97004 21.8672 1.06112 20.9226 0.507641C19.9862 -0.0410272 18.8331 -0.121786 17.5557 0.154272C16.1727 0.453157 15.2037 1.16483 14.6859 2.19429C14.1976 3.16504 14.1997 4.24452 14.3499 5.14918C14.3519 5.161 14.354 5.1728 14.3563 5.18455L14.3981 5.39542C13.5479 5.16718 12.6871 5.22984 11.9641 5.39604C10.9202 5.63603 10.0056 6.17853 9.43285 7.11095C8.87229 8.02347 8.7403 9.14556 8.90961 10.3578C8.91446 10.3926 8.92088 10.4271 8.92884 10.4613L12.9147 27.5646L6.65166 23.8032C6.62739 23.7886 6.6026 23.7749 6.57734 23.7622C5.39052 23.1622 4.07042 22.8266 2.86472 23.0851C1.55266 23.3664 0.591431 24.3061 0.1996 25.7598C-0.158179 27.0871 -0.0284381 28.3317 0.53628 29.3699C1.09463 30.3964 2.0234 31.1211 3.09201 31.5286C6.38324 32.7836 8.78177 35.0778 11.2194 39.2309C12.7606 41.8568 13.9834 43.8989 15.8879 45.1889C17.8351 46.5078 20.3281 46.9471 24.1487 46.9471C29.2739 46.9471 32.6225 45.8766 34.8387 43.7329C37.0219 41.6211 37.8919 38.6586 38.5422 35.4539C39.5556 30.4594 40.9933 21.1821 41.6106 17.1986L41.6107 17.1982L41.6121 17.1887C41.8392 15.7234 41.8522 14.4172 41.4109 13.3587C40.9274 12.1988 39.9904 11.5359 38.8123 11.2078C37.9818 10.9765 37.2079 10.9826 36.5107 11.2174L36.8535 9.55761L36.8565 9.5426C37.1421 8.06216 37.3183 6.60478 36.9875 5.39736C36.8122 4.75758 36.4914 4.16995 35.9718 3.69241C35.4593 3.22149 34.8164 2.91521 34.0829 2.73025C33.2176 2.51203 32.4195 2.51839 31.7048 2.76769C30.9889 3.0174 30.462 3.47412 30.0777 3.97744C29.4043 4.85943 29.0864 6.01575 28.8874 6.73958L28.8471 6.88556C28.8425 6.90196 28.8383 6.91847 28.8345 6.93505L26.0874 18.7984L22.6491 2.97198C22.6455 2.95534 22.6416 2.93879 22.6372 2.92233ZM15.2528 9.71339L15.2545 9.72214L15.2547 9.72298C15.2581 9.74032 15.2619 9.75757 15.2661 9.77473L19.0257 25.0817C19.1794 25.7074 19.8113 26.0901 20.437 25.9364C21.0628 25.7827 21.4455 25.1508 21.2918 24.5251L17.5385 9.2439L16.649 4.75007C16.5432 4.0994 16.5953 3.59094 16.7704 3.24283C16.9174 2.95044 17.229 2.61211 18.0486 2.43499C18.9738 2.23504 19.4758 2.36428 19.743 2.52087C19.9985 2.67055 20.2288 2.95622 20.3748 3.49424L24.911 24.3746C25.0269 24.908 25.4973 25.2898 26.0432 25.2935C26.5891 25.2973 27.0646 24.9219 27.1877 24.3901L31.1019 7.4863C31.3345 6.65038 31.5456 5.89993 31.9323 5.3934C32.1037 5.16898 32.2789 5.0387 32.4733 4.97087C32.669 4.90263 32.9894 4.86091 33.5124 4.99278C33.9704 5.10828 34.2338 5.26432 34.3929 5.41047C34.5447 5.55001 34.6604 5.73421 34.7371 6.01392C34.9098 6.64439 34.8517 7.61438 34.5669 9.09308L33.0998 16.1956L33.0984 16.2024L30.8016 26.9992C30.6675 27.6294 31.0697 28.249 31.6999 28.3831C32.3302 28.5172 32.9498 28.1149 33.0838 27.4847L35.3656 16.7589C35.4347 16.5656 35.5007 16.3712 35.5663 16.1779C35.8177 15.4371 36.0637 14.7121 36.4634 14.1214C36.7006 13.7709 36.9341 13.5674 37.1619 13.4654C37.3682 13.373 37.6785 13.3142 38.1863 13.4556C38.8514 13.6408 39.1125 13.9094 39.2572 14.2565C39.4442 14.7051 39.5155 15.4814 39.3063 16.8314C38.6861 20.8336 37.2563 30.0573 36.2554 34.9899C35.6107 38.167 34.8416 40.4837 33.2164 42.0558C31.6242 43.5959 28.9953 44.6137 24.1487 44.6137C20.4327 44.6137 18.5391 44.1664 17.1964 43.2569C15.8109 42.3185 14.8404 40.7906 13.2317 38.0497C10.6294 33.616 7.87314 30.8545 3.92339 29.3484C3.28871 29.1063 2.83733 28.7169 2.58603 28.2549C2.3411 27.8046 2.23167 27.1865 2.45255 26.3671C2.63938 25.674 2.97896 25.447 3.35387 25.3666C3.82888 25.2648 4.56862 25.3684 5.4882 25.8263L14.0757 30.9837C14.4774 31.2249 14.9844 31.2024 15.3632 30.9266C15.7419 30.6507 15.9189 30.175 15.8126 29.7187L11.2138 9.98538C11.1034 9.13914 11.238 8.63026 11.421 8.3323C11.5954 8.04845 11.9069 7.80343 12.4869 7.67009C13.1411 7.51969 13.7179 7.55633 14.1451 7.78854C14.5293 7.99735 15.0081 8.48186 15.2528 9.71339ZM20.6518 30.1863C20.0678 29.914 19.3736 30.1667 19.1014 30.7507C18.8291 31.3347 19.0818 32.0288 19.6657 32.3011C21.2336 33.0321 24.2269 35.4991 23.9646 39.4261C23.9216 40.069 24.408 40.625 25.0509 40.6679C25.6938 40.7109 26.2498 40.2245 26.2928 39.5816C26.6464 34.2871 22.6538 31.1197 20.6518 30.1863ZM137.911 23.0418C138.806 23.5318 139.77 23.7768 140.804 23.7768C141.8 23.7768 142.698 23.5007 143.5 22.9484C143.854 22.7004 144.177 22.4158 144.468 22.0945V23.4734H149.181V5.23818H144.468V12.4128C144.177 12.1073 143.854 11.8391 143.5 11.6083C142.698 11.0872 141.8 10.8266 140.804 10.8266C139.809 10.8266 138.864 11.0716 137.969 11.5616C137.075 12.0516 136.348 12.7711 135.788 13.72C135.228 14.6689 134.948 15.8278 134.948 17.1967C134.948 18.6434 135.22 19.8567 135.764 20.8367C136.309 21.809 137.024 22.544 137.911 23.0418ZM144.468 16.9283C144.468 16.4072 144.351 15.9794 144.118 15.645C143.885 15.3105 143.589 15.0617 143.231 14.8983C142.881 14.7272 142.523 14.6417 142.158 14.6417C141.567 14.6417 141.026 14.84 140.536 15.2367C140.046 15.6256 139.801 16.2789 139.801 17.1967C139.801 18.1145 140.046 18.7795 140.536 19.1917C141.026 19.6039 141.567 19.8101 142.158 19.8101C142.531 19.8101 142.893 19.7245 143.243 19.5534C143.601 19.3745 143.892 19.11 144.118 18.76C144.351 18.41 144.468 17.9784 144.468 17.465V17.08V17.01V16.9283ZM68.0642 9.76491H64.0275V23.4734H59.3257V9.76491H55.3007V6.26487H68.0642V9.76491ZM68.5507 23.4734V11.0833H73.2641V12.792C73.4608 12.4723 73.6863 12.1905 73.9408 11.9466C74.3219 11.5811 74.7575 11.3049 75.2475 11.1183C75.7453 10.9238 76.2975 10.8266 76.9042 10.8266C77.4097 10.8266 77.7908 10.8616 78.0475 10.9316C78.312 10.9938 78.4753 11.0444 78.5375 11.0833L77.8959 15.19C77.8259 15.1511 77.6703 15.0928 77.4292 15.015C77.1881 14.9294 76.8964 14.8867 76.5542 14.8867C75.9475 14.8867 75.4342 14.9839 75.0141 15.1783C74.5941 15.365 74.2558 15.6217 73.9991 15.9483C73.7425 16.2672 73.5558 16.6289 73.4391 17.0333C73.3224 17.43 73.2641 17.8345 73.2641 18.2467V23.4734H68.5507ZM82.307 23.3101C82.867 23.5823 83.5826 23.7184 84.4537 23.7184C85.2393 23.7184 85.9393 23.594 86.5537 23.3451C87.176 23.0884 87.701 22.7229 88.1288 22.2484C88.2864 22.0739 88.4303 21.8866 88.5604 21.6866V23.4734H93.2622V11.0833H88.5604V17.1734C88.5604 17.6322 88.4826 18.0678 88.3271 18.48C88.1793 18.8845 87.9538 19.215 87.6504 19.4717C87.3471 19.7206 86.9621 19.8451 86.4954 19.8451C86.0287 19.8451 85.6787 19.7362 85.4454 19.5184C85.212 19.2928 85.0565 18.9973 84.9787 18.6317C84.9087 18.2584 84.8737 17.85 84.8737 17.4067V16.7883V16.065V11.0833H80.172V16.8583V17.815V18.6784C80.172 19.3395 80.2342 19.9734 80.3586 20.5801C80.4831 21.179 80.7009 21.7156 81.012 22.1901C81.3231 22.6645 81.7548 23.0379 82.307 23.3101ZM100.91 23.7768C100.179 23.7768 99.4553 23.6873 98.7397 23.5084C98.0242 23.3373 97.3708 23.0768 96.7797 22.7268C96.1964 22.369 95.7258 21.9218 95.368 21.3851C95.018 20.8484 94.843 20.2184 94.843 19.4951V19.4367V19.3784H99.4981V19.4367V19.4951C99.4981 19.8217 99.6381 20.0512 99.9181 20.1834C100.198 20.3156 100.575 20.3817 101.05 20.3817C101.221 20.3817 101.419 20.3623 101.645 20.3234C101.87 20.2767 102.065 20.2028 102.228 20.1017C102.399 19.9928 102.485 19.8528 102.485 19.6817C102.485 19.4251 102.306 19.2462 101.948 19.145C101.598 19.0362 100.984 18.9117 100.105 18.7717C99.5759 18.6862 99.0158 18.5617 98.4247 18.3984C97.8336 18.2273 97.2775 17.9978 96.7564 17.71C96.2353 17.4145 95.8114 17.0411 95.4847 16.59C95.158 16.1389 94.9947 15.5828 94.9947 14.9217C94.9947 14.0194 95.2669 13.265 95.8114 12.6583C96.3636 12.0516 97.0908 11.5966 97.9931 11.2933C98.9031 10.9822 99.8948 10.8266 100.968 10.8266C101.987 10.8266 102.944 11.0016 103.838 11.3516C104.733 11.6938 105.46 12.1838 106.02 12.8216C106.58 13.4594 106.86 14.2139 106.86 15.085V15.1433V15.2017H102.251V15.1433V15.085C102.251 14.8672 102.181 14.6961 102.041 14.5716C101.909 14.4394 101.742 14.3422 101.54 14.28C101.338 14.2178 101.135 14.1866 100.933 14.1866C100.778 14.1866 100.591 14.2061 100.373 14.245C100.163 14.2761 99.9803 14.3383 99.8247 14.4316C99.6692 14.525 99.5914 14.6611 99.5914 14.84C99.5914 14.9955 99.6886 15.1278 99.8831 15.2367C100.085 15.3455 100.358 15.4389 100.7 15.5167C101.05 15.5867 101.439 15.6528 101.866 15.715C102.31 15.7772 102.823 15.8783 103.406 16.0183C103.99 16.1583 104.558 16.3683 105.11 16.6483C105.662 16.9206 106.117 17.2939 106.475 17.7684C106.84 18.235 107.023 18.8339 107.023 19.5651C107.023 20.3506 106.84 21.0117 106.475 21.5484C106.117 22.0851 105.635 22.5168 105.028 22.8434C104.429 23.1701 103.772 23.4073 103.056 23.5551C102.341 23.7029 101.625 23.7768 100.91 23.7768ZM113.904 23.6484C114.503 23.734 115.071 23.7768 115.607 23.7768C116.066 23.7768 116.463 23.7418 116.797 23.6718C117.139 23.6018 117.4 23.5279 117.579 23.4501V20.0551C117.454 20.1095 117.268 20.1639 117.019 20.2184C116.77 20.2728 116.506 20.3001 116.226 20.3001C115.751 20.3001 115.459 20.1445 115.351 19.8334C115.242 19.5223 115.187 19.1412 115.187 18.69V18.3517V18.0017V14.5833H118.606V11.0833H115.187V7.02321H110.474V7.74655C110.474 8.5399 110.443 9.16213 110.38 9.61325C110.326 10.0644 110.209 10.3949 110.03 10.6049C109.852 10.8149 109.579 10.9472 109.214 11.0016C108.856 11.056 108.374 11.0833 107.767 11.0833H107.709V14.5833H110.474V18.8417V19.3667V19.9034C110.474 20.7745 110.637 21.4706 110.964 21.9918C111.291 22.5051 111.714 22.8901 112.236 23.1468C112.757 23.4034 113.313 23.5707 113.904 23.6484ZM124.604 18.935C124.56 18.8167 124.522 18.6922 124.488 18.5617H133.844C133.86 18.4606 133.871 18.3284 133.879 18.165C133.887 18.0017 133.891 17.8034 133.891 17.57C133.891 16.1856 133.603 14.9917 133.027 13.9883C132.452 12.9772 131.631 12.1994 130.566 11.6549C129.508 11.1027 128.248 10.8266 126.786 10.8266C125.37 10.8266 124.126 11.0949 123.052 11.6316C121.987 12.1683 121.158 12.9227 120.567 13.895C119.976 14.8672 119.681 16.0028 119.681 17.3017C119.681 18.5695 119.968 19.6934 120.544 20.6734C121.12 21.6456 121.94 22.4079 123.006 22.9601C124.071 23.5046 125.331 23.7768 126.786 23.7768C127.836 23.7768 128.777 23.664 129.609 23.4384C130.441 23.2051 131.153 22.8901 131.744 22.4934C132.335 22.089 132.798 21.634 133.132 21.1284C133.475 20.6228 133.673 20.0978 133.727 19.5534H129.084C129.069 19.6467 129.018 19.7439 128.932 19.8451C128.855 19.9462 128.734 20.0395 128.571 20.1251C128.415 20.2106 128.205 20.2806 127.941 20.3351C127.676 20.3895 127.357 20.4167 126.984 20.4167C126.354 20.4167 125.845 20.2923 125.456 20.0434C125.067 19.7867 124.783 19.4173 124.604 18.935ZM129.15 15.7617H124.53C124.556 15.6811 124.585 15.6033 124.616 15.5283C124.802 15.0694 125.082 14.7233 125.456 14.49C125.829 14.2566 126.292 14.14 126.844 14.14C127.412 14.14 127.863 14.2372 128.197 14.4316C128.54 14.6261 128.785 14.8672 128.932 15.155C129.047 15.3614 129.12 15.5637 129.15 15.7617ZM55.0673 45.4071L59.0691 28.1985H66.5475L70.5259 45.4071H65.7075L64.9777 41.7904H60.6243L59.8857 45.4071H55.0673ZM62.814 31.0677L64.2644 38.2553H61.3462L62.814 31.0677ZM74.6971 44.8587C75.7627 45.4265 77.0383 45.7104 78.5238 45.7104C79.6205 45.7104 80.585 45.551 81.4172 45.2321C82.2495 44.9132 82.9417 44.4971 83.4939 43.9837C84.0539 43.4626 84.4739 42.8948 84.7539 42.2804C85.0417 41.6581 85.1856 41.0515 85.1856 40.4603H80.5189C80.48 40.7715 80.3867 41.0515 80.2389 41.3004C80.0989 41.5415 79.885 41.732 79.5972 41.872C79.3172 42.012 78.9439 42.082 78.4772 42.082C78.0027 42.082 77.5905 41.9576 77.2405 41.7087C76.8983 41.4598 76.6338 41.1137 76.4472 40.6703C76.2605 40.227 76.1672 39.7214 76.1672 39.1537C76.1672 38.5703 76.2605 38.0725 76.4472 37.6603C76.6338 37.2481 76.8983 36.9331 77.2405 36.7153C77.5905 36.4975 78.0027 36.3886 78.4772 36.3886C78.9594 36.3886 79.3328 36.4664 79.5972 36.622C79.8694 36.7697 80.0717 36.9525 80.2039 37.1703C80.3361 37.3881 80.4333 37.5981 80.4955 37.8003C80.5111 37.8392 80.5189 37.8781 80.5189 37.917C80.5267 37.9559 80.5305 37.9986 80.5305 38.0453H85.1856V37.9986V37.9403C85.1856 37.3414 85.0417 36.7386 84.7539 36.132C84.4739 35.5253 84.0539 34.9692 83.4939 34.4636C82.9417 33.9503 82.2495 33.538 81.4172 33.2269C80.585 32.9158 79.6205 32.7602 78.5238 32.7602C77.0383 32.7602 75.7627 33.0325 74.6971 33.5769C73.6316 34.1136 72.8149 34.8603 72.2471 35.8169C71.6793 36.7736 71.3954 37.8859 71.3954 39.1537C71.3954 40.4137 71.6793 41.5376 72.2471 42.5254C72.8149 43.5132 73.6316 44.291 74.6971 44.8587ZM93.358 45.7104C91.8725 45.7104 90.5969 45.4265 89.5313 44.8587C88.4658 44.291 87.6491 43.5132 87.0813 42.5254C86.5135 41.5376 86.2296 40.4137 86.2296 39.1537C86.2296 37.8859 86.5135 36.7736 87.0813 35.8169C87.6491 34.8603 88.4658 34.1136 89.5313 33.5769C90.5969 33.0325 91.8725 32.7602 93.358 32.7602C94.4547 32.7602 95.4192 32.9158 96.2514 33.2269C97.0836 33.538 97.7759 33.9503 98.3281 34.4636C98.8881 34.9692 99.3081 35.5253 99.5881 36.132C99.8759 36.7386 100.02 37.3414 100.02 37.9403V37.9986V38.0453H95.3647C95.3647 37.9986 95.3608 37.9559 95.3531 37.917C95.3531 37.8781 95.3453 37.8392 95.3297 37.8003C95.2675 37.5981 95.1703 37.3881 95.0381 37.1703C94.9058 36.9525 94.7036 36.7697 94.4314 36.622C94.1669 36.4664 93.7936 36.3886 93.3114 36.3886C92.8369 36.3886 92.4247 36.4975 92.0747 36.7153C91.7325 36.9331 91.468 37.2481 91.2813 37.6603C91.0947 38.0725 91.0013 38.5703 91.0013 39.1537C91.0013 39.7214 91.0947 40.227 91.2813 40.6703C91.468 41.1137 91.7325 41.4598 92.0747 41.7087C92.4247 41.9576 92.8369 42.082 93.3114 42.082C93.7781 42.082 94.1514 42.012 94.4314 41.872C94.7192 41.732 94.9331 41.5415 95.0731 41.3004C95.2208 41.0515 95.3142 40.7715 95.3531 40.4603H100.02C100.02 41.0515 99.8759 41.6581 99.5881 42.2804C99.3081 42.8948 98.8881 43.4626 98.3281 43.9837C97.7759 44.4971 97.0836 44.9132 96.2514 45.2321C95.4192 45.551 94.4547 45.7104 93.358 45.7104ZM104.436 44.8821C105.501 45.4265 106.734 45.6987 108.134 45.6987C109.534 45.6987 110.763 45.4265 111.821 44.8821C112.886 44.3376 113.715 43.5793 114.306 42.607C114.905 41.6348 115.204 40.507 115.204 39.2237C115.204 37.9403 114.905 36.8125 114.306 35.8403C113.715 34.868 112.886 34.1136 111.821 33.5769C110.763 33.0325 109.534 32.7602 108.134 32.7602C106.734 32.7602 105.501 33.0325 104.436 33.5769C103.378 34.1136 102.549 34.868 101.95 35.8403C101.359 36.8125 101.064 37.9403 101.064 39.2237C101.064 40.507 101.359 41.6348 101.95 42.607C102.549 43.5793 103.378 44.3376 104.436 44.8821ZM109.371 41.7787C109.028 42.0198 108.616 42.1404 108.134 42.1404C107.659 42.1404 107.247 42.0198 106.897 41.7787C106.555 41.5376 106.291 41.1992 106.104 40.7637C105.925 40.3281 105.836 39.8148 105.836 39.2237C105.836 38.6325 105.925 38.1231 106.104 37.6953C106.291 37.2597 106.555 36.9253 106.897 36.692C107.247 36.4508 107.659 36.3303 108.134 36.3303C108.616 36.3303 109.028 36.4508 109.371 36.692C109.713 36.9253 109.973 37.2597 110.152 37.6953C110.339 38.1231 110.432 38.6325 110.432 39.2237C110.432 39.8148 110.339 40.3281 110.152 40.7637C109.973 41.1992 109.713 41.5376 109.371 41.7787ZM121.186 45.6521C120.315 45.6521 119.599 45.516 119.039 45.2437C118.487 44.9715 118.055 44.5982 117.744 44.1237C117.433 43.6493 117.215 43.1126 117.091 42.5137C116.966 41.907 116.904 41.2731 116.904 40.612V39.7487V38.792V33.0169H121.606V37.9986V38.722V39.3403C121.606 39.7837 121.641 40.192 121.711 40.5653C121.789 40.9309 121.944 41.2265 122.178 41.452C122.411 41.6698 122.761 41.7787 123.228 41.7787C123.694 41.7787 124.079 41.6542 124.383 41.4054C124.686 41.1487 124.912 40.8181 125.059 40.4137C125.215 40.0014 125.293 39.5659 125.293 39.107V33.0169H129.994V45.4071H125.293V43.6202C125.163 43.8202 125.019 44.0075 124.861 44.1821C124.433 44.6565 123.908 45.0221 123.286 45.2787C122.672 45.5276 121.972 45.6521 121.186 45.6521ZM140.839 40.5887V45.4071H145.54V41.032V39.282V37.812C145.54 36.832 145.4 35.9608 145.12 35.1986C144.848 34.4364 144.401 33.8414 143.779 33.4136C143.157 32.978 142.317 32.7602 141.259 32.7602C140.263 32.7602 139.369 32.9858 138.575 33.4369C137.903 33.8126 137.351 34.3252 136.919 34.9746V33.0169H132.217V45.4071H136.919V39.2003C136.919 38.6637 136.989 38.2048 137.129 37.8236C137.269 37.4425 137.49 37.1509 137.794 36.9486C138.097 36.7464 138.494 36.6453 138.984 36.6453C139.552 36.6453 139.964 36.7697 140.22 37.0186C140.485 37.2675 140.652 37.5864 140.722 37.9753C140.8 38.3642 140.839 38.7725 140.839 39.2003V39.842V40.5887ZM154.413 45.7104C153.876 45.7104 153.309 45.6676 152.71 45.5821C152.119 45.5043 151.563 45.3371 151.041 45.0804C150.52 44.8237 150.096 44.4387 149.77 43.9254C149.443 43.4043 149.28 42.7082 149.28 41.837V41.3004V40.7753V36.517H146.515V33.0169H146.573C147.18 33.0169 147.662 32.9897 148.02 32.9352C148.385 32.8808 148.657 32.7486 148.836 32.5386C149.015 32.3286 149.132 31.998 149.186 31.5469C149.249 31.0958 149.28 30.4735 149.28 29.6802V28.9569H153.993V33.0169H157.411V36.517H153.993V39.9353V40.2853V40.6237C153.993 41.0748 154.048 41.4559 154.156 41.767C154.265 42.0781 154.557 42.2337 155.031 42.2337C155.311 42.2337 155.576 42.2065 155.825 42.152C156.074 42.0976 156.26 42.0431 156.385 41.9887V45.3837C156.206 45.4615 155.945 45.5354 155.603 45.6054C155.269 45.6754 154.872 45.7104 154.413 45.7104ZM162.383 45.4421C163.099 45.621 163.822 45.7104 164.553 45.7104C165.269 45.7104 165.984 45.6365 166.7 45.4887C167.415 45.341 168.073 45.1037 168.672 44.7771C169.278 44.4504 169.761 44.0187 170.118 43.4821C170.484 42.9454 170.667 42.2843 170.667 41.4987C170.667 40.7676 170.484 40.1687 170.118 39.702C169.761 39.2275 169.306 38.8542 168.753 38.582C168.201 38.302 167.633 38.092 167.05 37.952C166.467 37.812 165.953 37.7109 165.51 37.6486C165.082 37.5864 164.693 37.5203 164.343 37.4503C164.001 37.3725 163.729 37.2792 163.527 37.1703C163.332 37.0614 163.235 36.9292 163.235 36.7736C163.235 36.5947 163.313 36.4586 163.468 36.3653C163.624 36.2719 163.807 36.2097 164.017 36.1786C164.234 36.1397 164.421 36.1203 164.577 36.1203C164.779 36.1203 164.981 36.1514 165.183 36.2136C165.385 36.2758 165.553 36.3731 165.685 36.5053C165.825 36.6297 165.895 36.8008 165.895 37.0186V37.077V37.1353H170.503V37.077V37.0186C170.503 36.1475 170.223 35.3931 169.663 34.7553C169.103 34.1175 168.376 33.6275 167.482 33.2852C166.587 32.9352 165.63 32.7602 164.612 32.7602C163.538 32.7602 162.547 32.9158 161.637 33.2269C160.734 33.5302 160.007 33.9853 159.455 34.5919C158.91 35.1986 158.638 35.9531 158.638 36.8553C158.638 37.5164 158.801 38.0725 159.128 38.5237C159.455 38.9748 159.879 39.3481 160.4 39.6437C160.921 39.9314 161.477 40.1609 162.068 40.332C162.659 40.4953 163.219 40.6198 163.748 40.7053C164.627 40.8453 165.242 40.9698 165.592 41.0787C165.949 41.1798 166.128 41.3587 166.128 41.6154C166.128 41.7865 166.043 41.9265 165.872 42.0354C165.708 42.1365 165.514 42.2104 165.288 42.257C165.063 42.2959 164.864 42.3154 164.693 42.3154C164.219 42.3154 163.842 42.2493 163.562 42.117C163.282 41.9848 163.142 41.7554 163.142 41.4287V41.3704V41.312H158.486V41.3704V41.4287C158.486 42.152 158.661 42.782 159.011 43.3187C159.369 43.8554 159.84 44.3026 160.423 44.6604C161.014 45.0104 161.668 45.271 162.383 45.4421Z" fill="#2E31FF"/>
</svg>
