<svg width="25" height="25" viewBox="0 0 25 25" fill="none" xmlns="http://www.w3.org/2000/svg">
    <path d="M17.8185 10.0079C18.0684 9.31926 18.3825 7.93331 19.614 8.27627C20.3913 8.49272 20.6244 9.06185 20.4404 10.249C20.1797 11.9314 19.5749 15.8344 19.15 17.9282C18.6039 20.6191 17.7677 22.3802 13.563 22.3802C10.3851 22.3802 9.86367 21.6325 8.53547 19.3695C7.4729 17.5592 6.81985 16.6196 5.38829 15.7193C4.59126 15.2181 4.34541 14.0959 4.59131 13.5351C4.83721 12.9743 5.59473 12.7086 6.436 13.1563C7.27726 13.604 7.65537 13.9287 9.56885 15.7193C8.99346 13.845 7.62449 7.37594 7.62449 7.37594C7.5015 6.49536 7.8507 5.98866 8.53547 5.83123C9.22023 5.67381 10.0489 5.83123 10.2953 7.08077M17.8185 10.0079L18.4383 7.00705C18.6793 5.75751 18.6363 4.95813 17.6315 4.70475C16.4608 4.40951 16.2 5.45743 16.018 6.11171L14.3651 13.2498L12.4499 4.43411C12.2827 3.7995 11.8156 3.42169 10.8869 3.6224C9.95811 3.82311 9.80701 4.50789 9.91651 5.1671L10.2953 7.08077M17.8185 10.0079L16.8494 14.5633M10.2953 7.08077L11.8806 13.5351M11.9298 16.2507C12.6824 16.6016 14.1552 17.7895 14.0254 19.7337" stroke="white" stroke-width="1.3" stroke-linecap="round" stroke-linejoin="round"/>
</svg>
